G04 EAGLE Gerber X2 export*
%TF.Part,Single*%
%TF.FileFunction,Copper,L1,Top,Mixed*%
%TF.FilePolarity,Positive*%
%TF.GenerationSoftware,Autodesk,EAGLE,9.0.1*%
%TF.CreationDate,2018-06-21T06:15:50Z*%
G75*
%MOMM*%
%FSLAX34Y34*%
%LPD*%
%AMOC8*
5,1,8,0,0,1.08239X$1,22.5*%
G01*
%ADD10R,48.875000X3.125000*%
%ADD11R,1.300000X1.500000*%
%ADD12P,2.336880X8X22.500000*%
%ADD13P,2.336880X8X202.500000*%
%ADD14R,0.650000X1.750000*%
%ADD15R,1.600200X1.168400*%
%ADD16R,0.990600X0.304800*%
%ADD17R,1.778000X1.778000*%
%ADD18C,1.778000*%
%ADD19C,0.304800*%
%ADD20C,0.203200*%
%ADD21C,1.156400*%
%ADD22C,0.508000*%
%ADD23C,1.016000*%
%ADD24C,1.270000*%
%ADD25C,0.906400*%
%ADD26C,0.750000*%
%ADD27C,0.609600*%


D10*
X459375Y750625D03*
D11*
X145750Y737500D03*
X126750Y737500D03*
D12*
X668750Y643750D03*
X638750Y643750D03*
D13*
X368750Y643750D03*
X338750Y643750D03*
D12*
X308750Y643750D03*
X278750Y643750D03*
X248750Y643750D03*
X218750Y643750D03*
X608750Y643750D03*
X578750Y643750D03*
X548750Y643750D03*
X518750Y643750D03*
X488750Y643750D03*
X458750Y643750D03*
X428750Y643750D03*
X398750Y643750D03*
X713500Y835000D03*
X678500Y835000D03*
D13*
X626250Y807500D03*
X591250Y807500D03*
D12*
X556250Y807500D03*
X521250Y807500D03*
X486250Y807500D03*
X451250Y807500D03*
X643500Y835000D03*
X608500Y835000D03*
X573500Y835000D03*
X538500Y835000D03*
X503500Y835000D03*
X468500Y835000D03*
X696250Y807500D03*
X661250Y807500D03*
D14*
X540100Y721750D03*
X540100Y665750D03*
X552800Y721750D03*
X527400Y721750D03*
X514700Y721750D03*
X552800Y665750D03*
X527400Y665750D03*
X514700Y665750D03*
X480100Y721750D03*
X480100Y665750D03*
X492800Y721750D03*
X467400Y721750D03*
X454700Y721750D03*
X492800Y665750D03*
X467400Y665750D03*
X454700Y665750D03*
X660100Y721750D03*
X660100Y665750D03*
X672800Y721750D03*
X647400Y721750D03*
X634700Y721750D03*
X672800Y665750D03*
X647400Y665750D03*
X634700Y665750D03*
X600100Y721750D03*
X600100Y665750D03*
X612800Y721750D03*
X587400Y721750D03*
X574700Y721750D03*
X612800Y665750D03*
X587400Y665750D03*
X574700Y665750D03*
X240100Y721750D03*
X240100Y665750D03*
X252800Y721750D03*
X227400Y721750D03*
X214700Y721750D03*
X252800Y665750D03*
X227400Y665750D03*
X214700Y665750D03*
X300100Y721750D03*
X300100Y665750D03*
X312800Y721750D03*
X287400Y721750D03*
X274700Y721750D03*
X312800Y665750D03*
X287400Y665750D03*
X274700Y665750D03*
X360100Y721750D03*
X360100Y665750D03*
X372800Y721750D03*
X347400Y721750D03*
X334700Y721750D03*
X372800Y665750D03*
X347400Y665750D03*
X334700Y665750D03*
X420100Y721750D03*
X420100Y665750D03*
X432800Y721750D03*
X407400Y721750D03*
X394700Y721750D03*
X432800Y665750D03*
X407400Y665750D03*
X394700Y665750D03*
D11*
X145750Y707500D03*
X126750Y707500D03*
D15*
X411250Y845240D03*
X411250Y830000D03*
X411250Y814760D03*
X379000Y845240D03*
X379000Y830000D03*
X379000Y814760D03*
X312500Y845240D03*
X312500Y830000D03*
X312500Y814760D03*
X345000Y845240D03*
X345000Y830000D03*
X345000Y814760D03*
D16*
X125572Y841000D03*
X125572Y834500D03*
X125572Y828000D03*
X125572Y821500D03*
X125572Y815000D03*
X125572Y808500D03*
X125572Y802000D03*
X125572Y795500D03*
X125572Y789000D03*
X125572Y782500D03*
X125572Y776000D03*
X125572Y769500D03*
X125572Y763000D03*
X125572Y756500D03*
X183928Y756500D03*
X183928Y763000D03*
X183928Y769500D03*
X183928Y776000D03*
X183928Y782500D03*
X183928Y789000D03*
X183928Y795500D03*
X183928Y802000D03*
X183928Y808500D03*
X183928Y815000D03*
X183928Y821500D03*
X183928Y828000D03*
X183928Y834500D03*
X183928Y841000D03*
D17*
X185300Y874600D03*
D18*
X185300Y900000D03*
X210700Y874600D03*
X210700Y900000D03*
X236100Y874600D03*
X236100Y900000D03*
X261500Y874600D03*
X261500Y900000D03*
X286900Y874600D03*
X286900Y900000D03*
X312300Y874600D03*
X312300Y900000D03*
X337700Y874600D03*
X337700Y900000D03*
X363100Y874600D03*
X363100Y900000D03*
X388500Y874600D03*
X388500Y900000D03*
X413900Y874600D03*
X413900Y900000D03*
X439300Y874600D03*
X439300Y900000D03*
X464700Y874600D03*
X464700Y900000D03*
X490100Y874600D03*
X490100Y900000D03*
X515500Y874600D03*
X515500Y900000D03*
X540900Y874600D03*
X540900Y900000D03*
X566300Y874600D03*
X566300Y900000D03*
X591700Y874600D03*
X591700Y900000D03*
X617100Y874600D03*
X617100Y900000D03*
X642500Y874600D03*
X642500Y900000D03*
X667900Y874600D03*
X667900Y900000D03*
D12*
X693750Y735000D03*
X693750Y757500D03*
X221250Y745000D03*
X247500Y745000D03*
X280000Y745000D03*
X307500Y745000D03*
X340000Y745000D03*
X367500Y745000D03*
X400000Y745000D03*
X427500Y745000D03*
X667500Y745000D03*
X640000Y745000D03*
X607500Y745000D03*
X580000Y745000D03*
X547500Y745000D03*
X520000Y745000D03*
X487500Y745000D03*
X460000Y745000D03*
X728750Y702500D03*
D19*
X286900Y831750D02*
X286900Y849000D01*
X191250Y821500D02*
X183928Y821500D01*
X379000Y814760D02*
X411250Y814760D01*
X379000Y814760D02*
X345000Y814760D01*
X312500Y814760D01*
X191250Y815000D02*
X183928Y815000D01*
X191250Y815000D02*
X191250Y821500D01*
X183928Y821500D02*
X160000Y821500D01*
X123348Y742963D02*
X125935Y738809D01*
X126750Y737500D01*
X126750Y722501D02*
X126750Y707500D01*
X126750Y722501D02*
X126750Y735000D01*
X126750Y737500D01*
X126750Y707500D02*
X126678Y697501D01*
X303890Y814760D02*
X312500Y814760D01*
X303890Y814760D02*
X286900Y831750D01*
X160000Y821500D02*
X156750Y816750D01*
D20*
X130000Y841000D02*
X125572Y841000D01*
X142500Y853500D02*
X154500Y853500D01*
X173870Y872870D01*
X173870Y884542D01*
X176578Y887250D01*
X274250Y887250D02*
X286900Y874600D01*
X142500Y853500D02*
X130000Y841000D01*
X176578Y887250D02*
X274250Y887250D01*
D21*
X187428Y735750D03*
D19*
X126678Y697501D02*
X126678Y696952D01*
X153750Y696952D01*
D22*
X286900Y849000D02*
X286900Y874600D01*
X286900Y849000D02*
X246144Y849000D01*
X192162Y822412D02*
X191250Y821500D01*
X192162Y822412D02*
X219556Y822412D01*
X246144Y849000D01*
X192162Y822412D02*
X162412Y822412D01*
X156750Y816750D01*
X187428Y735750D02*
X187428Y729431D01*
X153933Y695936D02*
X127694Y695936D01*
X153933Y695936D02*
X187428Y729431D01*
X127694Y706556D02*
X127694Y695936D01*
X127694Y706556D02*
X126750Y707500D01*
X126750Y735000D01*
X125572Y739172D02*
X125572Y756500D01*
X125572Y739172D02*
X125935Y738809D01*
X155787Y803222D02*
X156750Y804184D01*
X155787Y803222D02*
X155787Y763777D01*
X156750Y762814D01*
X156750Y804184D02*
X156750Y816750D01*
X155251Y722501D02*
X126750Y722501D01*
X155251Y722501D02*
X156750Y724000D01*
X156750Y762814D01*
X685500Y765750D02*
X693750Y757500D01*
X685500Y765750D02*
X214500Y765750D01*
X214500Y735750D01*
X287250Y721900D02*
X287400Y721750D01*
X227250Y735750D02*
X214500Y735750D01*
X227250Y735750D02*
X252750Y735750D01*
X287250Y735750D01*
X312000Y735750D01*
X346500Y735750D01*
X372750Y735750D01*
X407250Y735750D01*
X433500Y735750D01*
X467250Y735750D01*
X493500Y735750D01*
X527250Y735750D01*
X552750Y735750D01*
X587250Y735750D01*
X613500Y735750D01*
X648000Y735750D01*
X673500Y735750D01*
X679500Y735750D01*
X682500Y732750D01*
X684000Y731250D01*
X684000Y723750D01*
X684000Y720000D01*
X684000Y716250D01*
X684000Y711000D01*
X694875Y721875D01*
X714000Y741000D01*
X714000Y755250D01*
X703500Y765750D01*
X685500Y765750D01*
D23*
X227400Y735600D02*
X227400Y721750D01*
X227400Y735600D02*
X227250Y735750D01*
X252800Y735700D02*
X252800Y721750D01*
X252800Y735700D02*
X252750Y735750D01*
X287400Y735600D02*
X287400Y721750D01*
X287400Y735600D02*
X287250Y735750D01*
X312800Y734950D02*
X312800Y721750D01*
X312800Y734950D02*
X312000Y735750D01*
X347400Y734850D02*
X347400Y721750D01*
X347400Y734850D02*
X346500Y735750D01*
X372800Y735700D02*
X372800Y721750D01*
X372800Y735700D02*
X372750Y735750D01*
X432800Y735050D02*
X432800Y721750D01*
X432800Y735050D02*
X433500Y735750D01*
X407400Y735600D02*
X407400Y721750D01*
X407400Y735600D02*
X407250Y735750D01*
X467400Y735600D02*
X467400Y721750D01*
X467400Y735600D02*
X467250Y735750D01*
X492800Y735050D02*
X492800Y721750D01*
X492800Y735050D02*
X493500Y735750D01*
X527400Y735600D02*
X527400Y721750D01*
X527400Y735600D02*
X527250Y735750D01*
X552800Y735700D02*
X552800Y721750D01*
X552800Y735700D02*
X552750Y735750D01*
X587400Y735600D02*
X587400Y721750D01*
X587400Y735600D02*
X587250Y735750D01*
X612800Y735050D02*
X612800Y721750D01*
X612800Y735050D02*
X613500Y735750D01*
X647400Y735150D02*
X647400Y721750D01*
X647400Y735150D02*
X648000Y735750D01*
X672800Y735050D02*
X672800Y721750D01*
X672800Y735050D02*
X673500Y735750D01*
D24*
X693750Y757500D02*
X220500Y759000D01*
X221250Y742500D01*
X229500Y749250D01*
X702000Y757500D01*
X708750Y751500D01*
X705000Y740250D01*
X690750Y729750D01*
X701250Y752250D01*
X681750Y746250D01*
X680216Y746242D01*
X547497Y745580D01*
X231000Y744000D01*
X684750Y742500D01*
D22*
X694467Y721664D02*
X684000Y716250D01*
X694467Y721664D02*
X694875Y721875D01*
X687890Y720618D02*
X684000Y720000D01*
X687890Y720618D02*
X694467Y721664D01*
X686886Y726316D02*
X690750Y729750D01*
X686886Y726316D02*
X684000Y723750D01*
X686886Y726316D02*
X687890Y720618D01*
X682500Y732750D02*
X680216Y746242D01*
X684000Y731250D02*
X693750Y735000D01*
X687000Y738000D01*
X547500Y745000D02*
X547500Y745577D01*
X547497Y745580D01*
D25*
X141000Y827250D03*
X660000Y706741D03*
X711000Y795750D03*
D20*
X713750Y802500D01*
X713500Y835000D01*
X128008Y810936D02*
X125572Y808500D01*
X128008Y810936D02*
X131577Y810936D01*
X141000Y820359D01*
X141000Y827250D01*
D22*
X660000Y721650D02*
X660000Y706741D01*
X660000Y721650D02*
X660100Y721750D01*
X660000Y706741D02*
X660491Y706250D01*
X670000Y706250D01*
X670000Y701250D01*
X665491Y701250D01*
X660000Y706741D01*
D20*
X125572Y802000D02*
X116500Y802000D01*
X114750Y805500D01*
D25*
X114750Y805500D03*
X635000Y706726D03*
D22*
X635000Y721450D01*
X634700Y721750D01*
X641250Y700000D02*
X647500Y700000D01*
X641250Y700000D02*
X635000Y700000D01*
X640774Y706726D02*
X647500Y700000D01*
X640774Y706726D02*
X635000Y706726D01*
X635000Y700000D01*
X635000Y706250D02*
X635000Y706726D01*
X635000Y706250D02*
X641250Y700000D01*
D25*
X136500Y805500D03*
X695542Y832500D03*
X600033Y706791D03*
D20*
X672976Y852085D02*
X682500Y852085D01*
X133065Y802065D02*
X133065Y799424D01*
X133065Y802065D02*
X136500Y805500D01*
X129141Y795500D02*
X125572Y795500D01*
X129141Y795500D02*
X133065Y799424D01*
D22*
X600033Y721683D02*
X600033Y706791D01*
X600033Y721683D02*
X600100Y721750D01*
X600742Y707500D02*
X600033Y706791D01*
X600742Y707500D02*
X615000Y707500D01*
X615000Y701250D01*
X609459Y706791D01*
X600033Y706791D01*
D20*
X695542Y832500D02*
X695542Y839043D01*
X682500Y852085D01*
X672976Y852085D02*
X655891Y835000D01*
X643500Y835000D01*
D19*
X185300Y841000D02*
X183928Y841000D01*
X312500Y845240D02*
X345000Y845240D01*
X379000Y845240D01*
X411250Y845240D01*
X146260Y737649D02*
X145750Y737500D01*
X379000Y874600D02*
X388500Y874600D01*
X379000Y874600D02*
X379000Y845240D01*
D22*
X185300Y841000D02*
X185300Y874600D01*
X183928Y841000D02*
X170000Y841000D01*
X169760Y841000D01*
X170000Y841000D02*
X146260Y817260D01*
X146260Y737649D01*
D19*
X147750Y707500D02*
X150750Y707500D01*
X147750Y707500D02*
X145750Y707500D01*
D20*
X168250Y808500D02*
X183928Y808500D01*
X168250Y808500D02*
X160867Y801117D01*
X147750Y709253D02*
X147750Y707500D01*
X171750Y731250D02*
X171750Y733253D01*
X146250Y708000D02*
X145750Y707500D01*
X146250Y708000D02*
X156000Y708000D01*
X171750Y723750D01*
X171750Y731250D01*
X171750Y733253D02*
X171750Y754999D01*
X160867Y765881D02*
X160867Y801117D01*
X160867Y765881D02*
X171750Y754999D01*
D26*
X660100Y665750D02*
X660100Y649900D01*
X665769Y645870D01*
X668750Y643750D01*
X672800Y658500D02*
X672800Y665750D01*
X672800Y658500D02*
X672800Y645300D01*
X668750Y643750D01*
D27*
X672800Y665750D02*
X660100Y665750D01*
X672800Y665750D02*
X666562Y648112D01*
X665769Y645870D01*
X672800Y658500D02*
X660100Y665750D01*
X664570Y653550D01*
X666562Y648112D01*
X664570Y653550D02*
X672800Y665750D01*
D26*
X634700Y665750D02*
X634700Y650250D01*
X634700Y645300D01*
X638750Y643750D01*
X647400Y649900D02*
X647400Y665750D01*
X647400Y649900D02*
X640923Y645295D01*
X638750Y643750D01*
D27*
X634700Y665750D02*
X647400Y665750D01*
X645027Y658254D01*
X640923Y645295D01*
X645027Y658254D02*
X634700Y665750D01*
X647400Y665750D02*
X634700Y650250D01*
D26*
X600100Y649900D02*
X600100Y665750D01*
X600100Y649900D02*
X605625Y645972D01*
X608750Y643750D01*
X612800Y645300D02*
X612800Y665750D01*
X612800Y645300D02*
X608750Y643750D01*
D27*
X612800Y665750D02*
X600100Y665750D01*
X612800Y665750D02*
X609793Y657462D01*
X605625Y645972D01*
X609793Y657462D02*
X600100Y665750D01*
X612800Y665750D02*
X600100Y649900D01*
D26*
X574700Y645300D02*
X574700Y665750D01*
X574700Y645300D02*
X578750Y643750D01*
X587400Y649900D02*
X587400Y665750D01*
X587400Y649900D02*
X578750Y643750D01*
D27*
X574700Y665750D02*
X587400Y665750D01*
X582602Y658024D01*
X581048Y655523D01*
X574700Y645300D01*
X581048Y655523D02*
X574700Y665750D01*
X583819Y659984D01*
X582602Y658024D01*
X583819Y659984D02*
X587400Y665750D01*
D20*
X125572Y789000D02*
X117000Y789000D01*
X114750Y792000D01*
D25*
X114750Y792000D03*
X732750Y795750D03*
X574250Y706750D03*
D20*
X723000Y795750D02*
X732750Y795750D01*
X723000Y795750D02*
X714446Y787196D01*
X711748Y787196D02*
X643501Y787268D01*
X711748Y787196D02*
X714446Y787196D01*
X643501Y787268D02*
X643501Y812500D01*
D22*
X574250Y721300D02*
X574250Y706750D01*
X574250Y721300D02*
X574700Y721750D01*
X574250Y706750D02*
X575000Y706000D01*
X575000Y698750D01*
X582250Y698750D01*
X587500Y698750D01*
X582250Y698750D02*
X574250Y706750D01*
D20*
X643501Y812500D02*
X621001Y835000D01*
X608500Y835000D01*
D25*
X136500Y785250D03*
X286250Y807500D03*
D20*
X418750Y802500D02*
X425000Y808750D01*
X425000Y860000D01*
D25*
X734250Y783750D03*
D20*
X540100Y721750D02*
X540094Y720754D01*
D25*
X540000Y691934D03*
D20*
X607500Y783750D02*
X714970Y783636D01*
X734136Y783636D01*
X734250Y783750D01*
X584250Y824250D02*
X573500Y835000D01*
X548500Y860000D01*
X425000Y860000D01*
X133750Y782500D02*
X125572Y782500D01*
X133750Y782500D02*
X136500Y785250D01*
D22*
X540000Y720660D02*
X540000Y691934D01*
X540000Y720660D02*
X540094Y720754D01*
D20*
X291250Y802500D02*
X286250Y807500D01*
X291250Y802500D02*
X418750Y802500D01*
X607500Y813750D02*
X607500Y783750D01*
X607500Y813750D02*
X597000Y824250D01*
X584250Y824250D01*
X125572Y776000D02*
X117500Y776000D01*
X114750Y779250D01*
D25*
X114750Y779250D03*
X271250Y807500D03*
D20*
X428556Y856056D02*
X428750Y856250D01*
X428556Y807277D02*
X420223Y798944D01*
X428556Y807277D02*
X428556Y856056D01*
X428750Y856250D02*
X506250Y856250D01*
X507750Y856250D01*
X525375Y685875D02*
X526638Y684612D01*
X709960Y772540D02*
X722500Y760000D01*
X709960Y772540D02*
X565960Y772540D01*
X722500Y760000D02*
X722500Y738750D01*
X668362Y684612D02*
X526638Y684612D01*
D22*
X515000Y696250D02*
X515000Y721450D01*
X514700Y721750D01*
X515000Y696250D02*
X525114Y686136D01*
X525375Y686136D01*
D20*
X279806Y798944D02*
X271250Y807500D01*
X279806Y798944D02*
X420223Y798944D01*
X668362Y684612D02*
X722500Y738750D01*
X565960Y772540D02*
X541000Y797500D01*
X541000Y820000D01*
X538500Y822500D01*
X538500Y835000D01*
X517250Y856250D02*
X507750Y856250D01*
X517250Y856250D02*
X538500Y835000D01*
D25*
X137250Y771000D03*
D20*
X421696Y795388D02*
X432112Y805804D01*
X432112Y852306D01*
X432500Y852694D01*
D25*
X256250Y807500D03*
X573693Y817149D03*
D20*
X726056Y761473D02*
X726180Y761349D01*
X726056Y761473D02*
X711433Y776096D01*
X575000Y776096D01*
X569928Y799749D02*
X573693Y803515D01*
X573693Y817149D01*
X569928Y799749D02*
X569928Y781168D01*
X575000Y776096D01*
X135750Y769500D02*
X125572Y769500D01*
X135750Y769500D02*
X137250Y771000D01*
X726180Y761349D02*
X726180Y738000D01*
X669835Y681056D02*
X496500Y681056D01*
D22*
X480000Y696250D02*
X480000Y721650D01*
X480100Y721750D01*
X480000Y696250D02*
X494130Y682120D01*
X496500Y682120D01*
D20*
X268362Y795388D02*
X256250Y807500D01*
X268362Y795388D02*
X421696Y795388D01*
X669835Y681056D02*
X726056Y737277D01*
X726056Y761473D01*
X503500Y835000D02*
X485806Y852694D01*
X432500Y852694D01*
D26*
X540100Y665750D02*
X540100Y657750D01*
X540100Y649900D01*
X548750Y643750D01*
X552800Y645300D02*
X552800Y665750D01*
X552800Y645300D02*
X548750Y643750D01*
D27*
X552800Y665750D02*
X540100Y665750D01*
X546611Y661852D02*
X552800Y665750D01*
X546611Y661852D02*
X540100Y657750D01*
X540100Y665750D02*
X545913Y645767D01*
X546611Y661852D01*
D26*
X514700Y665750D02*
X514700Y645300D01*
X518750Y643750D01*
X527400Y660000D02*
X527400Y665750D01*
X527400Y660000D02*
X527400Y649900D01*
X518750Y643750D01*
D27*
X514700Y665750D02*
X527400Y665750D01*
X514700Y645300D01*
X527400Y649900D02*
X514700Y665750D01*
X527400Y660000D01*
D26*
X480100Y665750D02*
X480100Y649900D01*
X482857Y647940D01*
X488750Y643750D01*
X492800Y649500D02*
X492800Y665750D01*
X492800Y649500D02*
X492800Y645300D01*
X488750Y643750D01*
D27*
X492800Y665750D02*
X480100Y665750D01*
X483821Y654544D02*
X480100Y649900D01*
X492800Y649500D02*
X480100Y665750D01*
X482154Y652485D01*
X482857Y647940D01*
X483821Y654544D02*
X492800Y665750D01*
X482154Y652485D02*
X488750Y643750D01*
D26*
X454700Y650250D02*
X454700Y665750D01*
X454700Y650250D02*
X454700Y645300D01*
X458750Y643750D01*
X467400Y658500D02*
X467400Y665750D01*
X467400Y658500D02*
X467400Y649900D01*
X458750Y643750D01*
D27*
X467400Y649900D02*
X454700Y665750D01*
X467400Y665750D01*
X467400Y658500D02*
X454700Y665750D01*
X458199Y654521D02*
X454700Y650250D01*
X458199Y654521D02*
X467400Y665750D01*
X458199Y654521D02*
X458750Y643750D01*
D20*
X125572Y763000D02*
X118000Y763000D01*
X116000Y765000D01*
X114750Y766500D01*
D25*
X114750Y766500D03*
D20*
X423169Y791832D02*
X435668Y804331D01*
D25*
X241250Y807500D03*
D20*
X471710Y677040D02*
X577500Y677040D01*
X667500Y677439D02*
X670499Y677452D01*
X667500Y677439D02*
X577500Y677040D01*
D25*
X577000Y796820D03*
D20*
X729736Y762822D02*
X729806Y762752D01*
X729736Y762822D02*
X712906Y779652D01*
X577000Y779652D01*
X577000Y796820D01*
X470500Y678250D02*
X471710Y677040D01*
X729806Y745000D02*
X729806Y762752D01*
X729806Y745000D02*
X729806Y738750D01*
D22*
X455000Y721450D02*
X455000Y693750D01*
X455000Y721450D02*
X454700Y721750D01*
X455000Y693750D02*
X470186Y678564D01*
X470500Y678564D01*
D20*
X468500Y835000D02*
X435668Y835000D01*
X435668Y804331D01*
X256918Y791832D02*
X241250Y807500D01*
X256918Y791832D02*
X423169Y791832D01*
X729736Y738680D02*
X729806Y738750D01*
X729736Y738680D02*
X729736Y735928D01*
X671247Y677439D01*
X667500Y677439D01*
X729736Y744930D02*
X729736Y762822D01*
X729806Y745000D02*
X729736Y744930D01*
X729736Y738680D01*
X439224Y802858D02*
X424642Y788276D01*
D25*
X214500Y706500D03*
X226250Y807500D03*
D20*
X183928Y802000D02*
X171751Y802000D01*
X171179Y801428D01*
D25*
X171179Y801428D03*
D20*
X439224Y802858D02*
X451250Y802858D01*
X451250Y807500D01*
D22*
X214700Y706500D02*
X214500Y706500D01*
X214700Y706500D02*
X214700Y721750D01*
D20*
X245474Y788276D02*
X226250Y807500D01*
X245474Y788276D02*
X424642Y788276D01*
X220750Y802000D02*
X183928Y802000D01*
X220750Y802000D02*
X226250Y807500D01*
X226859Y795500D02*
X183928Y795500D01*
X226859Y795500D02*
X237639Y784720D01*
D25*
X240000Y706500D03*
X168000Y791250D03*
D20*
X486250Y784720D02*
X486250Y807500D01*
X486250Y784720D02*
X237639Y784720D01*
X183928Y795500D02*
X175253Y795500D01*
X174109Y794356D01*
X171106Y794356D01*
X168000Y791250D01*
D22*
X240000Y706500D02*
X240100Y706500D01*
X240100Y721750D01*
X241000Y707500D02*
X240000Y706500D01*
X241000Y707500D02*
X257500Y707500D01*
X252500Y702500D01*
X244000Y702500D02*
X240000Y706500D01*
X244000Y702500D02*
X252500Y702500D01*
D20*
X228330Y789000D02*
X183928Y789000D01*
X228330Y789000D02*
X236166Y781164D01*
D25*
X274500Y706500D03*
X168000Y780000D03*
D20*
X521250Y781164D02*
X521250Y807500D01*
X521250Y781164D02*
X236166Y781164D01*
X183928Y789000D02*
X177000Y789000D01*
X168000Y780000D01*
D22*
X274500Y706500D02*
X274700Y706500D01*
X274700Y721750D01*
X274500Y706500D02*
X283000Y706500D01*
X283750Y706500D02*
X289750Y706500D01*
X290000Y706250D01*
X282500Y698750D01*
X278750Y698750D01*
X278750Y702250D01*
X274500Y706500D01*
X278750Y702250D02*
X283000Y706500D01*
X283750Y706500D01*
D26*
X214700Y665750D02*
X214700Y657750D01*
X214700Y645300D01*
X218750Y643750D01*
X227400Y655500D02*
X227400Y665750D01*
X227400Y655500D02*
X227400Y649900D01*
X218750Y643750D01*
D27*
X214700Y665750D02*
X227400Y665750D01*
X217918Y659777D01*
X214700Y657750D01*
X214700Y665750D02*
X227400Y655500D01*
X220500Y651750D02*
X227400Y665750D01*
X217918Y659777D02*
X220500Y651750D01*
D26*
X240100Y658500D02*
X240100Y665750D01*
X240100Y658500D02*
X240100Y649900D01*
X248750Y643750D01*
X252800Y655500D02*
X252800Y665750D01*
X252800Y655500D02*
X252800Y651750D01*
X252800Y645300D01*
X248750Y643750D01*
D27*
X252800Y665750D02*
X240100Y665750D01*
X240100Y658500D02*
X252800Y665750D01*
X252800Y655500D02*
X240100Y665750D01*
X252800Y665750D02*
X240100Y649900D01*
X252800Y651750D02*
X240100Y665750D01*
D26*
X274700Y665750D02*
X274700Y660000D01*
X274700Y653250D01*
X274700Y648000D01*
X274700Y645300D01*
X278750Y643750D01*
X287400Y656250D02*
X287400Y665750D01*
X287400Y656250D02*
X287400Y649900D01*
X281565Y645752D01*
X278750Y643750D01*
D27*
X274700Y665750D02*
X287400Y665750D01*
X274700Y660000D01*
X274700Y665750D02*
X287400Y656250D01*
X287400Y665750D02*
X274700Y653250D01*
X274700Y665750D02*
X287400Y649900D01*
X274700Y648000D02*
X287400Y665750D01*
X274700Y665750D02*
X281565Y645752D01*
D26*
X300100Y649900D02*
X300100Y665750D01*
X300100Y649900D02*
X308750Y643750D01*
X312800Y653250D02*
X312800Y665750D01*
X312800Y653250D02*
X312800Y645300D01*
X308750Y643750D01*
D27*
X312800Y665750D02*
X300100Y665750D01*
X312800Y665750D02*
X300100Y649900D01*
X312800Y653250D02*
X300100Y665750D01*
X312800Y665750D02*
X304562Y646728D01*
D20*
X306140Y646360D02*
X308750Y643750D01*
X306140Y646360D02*
X305078Y646360D01*
X188872Y782500D02*
X183928Y782500D01*
D25*
X168000Y768750D03*
X300000Y699000D03*
X504000Y815250D03*
D20*
X191816Y785444D02*
X188872Y782500D01*
X226857Y785444D02*
X234693Y777608D01*
X226857Y785444D02*
X191816Y785444D01*
X176435Y777185D02*
X168000Y768750D01*
X176435Y777185D02*
X176435Y778576D01*
X180359Y782500D01*
X183928Y782500D01*
D22*
X300000Y721750D02*
X300000Y699000D01*
X300000Y721750D02*
X300100Y721750D01*
D20*
X234693Y777608D02*
X536250Y777608D01*
X536250Y813750D01*
X506500Y815250D02*
X504000Y815250D01*
X506500Y815250D02*
X513750Y822500D01*
X527500Y822500D01*
X536250Y813750D01*
D25*
X195000Y777750D03*
D20*
X219750Y687708D02*
X307708Y687708D01*
X193250Y776000D02*
X183928Y776000D01*
X193250Y776000D02*
X195000Y777750D01*
X207000Y765750D01*
X207000Y700458D02*
X219750Y687708D01*
X207000Y700458D02*
X207000Y765750D01*
D22*
X334700Y721750D02*
X334700Y714700D01*
X309232Y689232D01*
X307708Y689232D01*
D25*
X195000Y766500D03*
D20*
X333750Y684152D02*
X334424Y684826D01*
X192000Y769500D02*
X183928Y769500D01*
X192000Y769500D02*
X195000Y766500D01*
X203250Y758250D01*
X203250Y699179D02*
X218277Y684152D01*
X203250Y699179D02*
X203250Y758250D01*
X218277Y684152D02*
X333750Y684152D01*
D22*
X360100Y710502D02*
X360100Y721750D01*
X360100Y710502D02*
X335274Y685676D01*
X334424Y685676D01*
D25*
X195000Y755250D03*
D20*
X187497Y763000D02*
X183928Y763000D01*
X191678Y755250D02*
X195000Y755250D01*
X186364Y760564D02*
X183928Y763000D01*
X186364Y760564D02*
X189933Y760564D01*
X191421Y759076D01*
X191421Y755507D01*
X191678Y755250D01*
X195000Y755250D02*
X199500Y750750D01*
X199500Y697900D02*
X216804Y680596D01*
X199500Y697900D02*
X199500Y750750D01*
X216804Y680596D02*
X375750Y680596D01*
D22*
X394700Y691546D02*
X394700Y721750D01*
X394700Y691546D02*
X385274Y682120D01*
X375750Y682120D01*
D26*
X334700Y665750D02*
X334700Y645300D01*
X338750Y643750D01*
X347400Y649900D02*
X347400Y665750D01*
X347400Y649900D02*
X338750Y643750D01*
D27*
X334700Y665750D02*
X347400Y665750D01*
X343738Y659853D01*
X341385Y656064D01*
X334700Y645300D01*
X341385Y656064D02*
X334700Y665750D01*
X343738Y659853D01*
D26*
X360100Y654000D02*
X360100Y665750D01*
X360100Y654000D02*
X360100Y649900D01*
X363068Y647790D01*
X368750Y643750D01*
X372800Y655500D02*
X372800Y665750D01*
X372800Y655500D02*
X372800Y645300D01*
X368750Y643750D01*
D27*
X372800Y665750D02*
X360100Y665750D01*
X372800Y665750D02*
X363068Y647790D01*
X372800Y655500D02*
X360100Y665750D01*
X360100Y654000D02*
X372800Y665750D01*
D26*
X394700Y665750D02*
X394700Y652500D01*
X394700Y645300D01*
X398750Y643750D01*
X407400Y649900D02*
X407400Y665750D01*
X407400Y649900D02*
X398750Y643750D01*
D27*
X394700Y665750D02*
X407400Y665750D01*
X394700Y665750D02*
X407400Y649900D01*
X394700Y652500D02*
X407400Y665750D01*
D26*
X420100Y665750D02*
X420100Y649900D01*
X428750Y643750D01*
X432800Y651000D02*
X432800Y665750D01*
X432800Y651000D02*
X432800Y645300D01*
X428750Y643750D01*
D27*
X432800Y665750D02*
X420100Y665750D01*
X432800Y651000D01*
X420100Y649900D02*
X432800Y665750D01*
D25*
X183750Y748500D03*
D20*
X184178Y756250D02*
X183928Y756500D01*
X183928Y748678D01*
X183750Y748500D01*
X195750Y696621D02*
X215331Y677040D01*
X398290Y677040D01*
X195750Y748178D02*
X184072Y748178D01*
X183750Y748500D01*
X195750Y748178D02*
X195750Y696621D01*
D22*
X420100Y698900D02*
X420100Y721750D01*
X420100Y698900D02*
X420125Y698875D01*
X399814Y678564D02*
X398290Y678564D01*
X399814Y678564D02*
X420125Y698875D01*
D20*
X125572Y828000D02*
X116750Y828000D01*
X114750Y831000D01*
D25*
X114750Y831000D03*
X329000Y831500D03*
D20*
X329000Y830000D01*
X345000Y830000D01*
D25*
X142500Y843000D03*
X362250Y830000D03*
D20*
X379000Y830000D01*
X142500Y843000D02*
X133500Y834000D01*
X133500Y821250D01*
X125822Y821250D01*
X125572Y821500D01*
D25*
X114750Y818250D03*
X395750Y830000D03*
D20*
X411250Y830000D01*
X125572Y815000D02*
X118000Y815000D01*
X114750Y818250D01*
D19*
X236100Y854250D02*
X236100Y874600D01*
X236100Y854250D02*
X236250Y854250D01*
X236100Y854250D02*
X216000Y854250D01*
X216000Y828000D02*
X183928Y828000D01*
X216000Y828000D02*
X216000Y854250D01*
X210700Y834500D02*
X183928Y834500D01*
X210700Y834500D02*
X210700Y874600D01*
D25*
X114750Y846000D03*
X296000Y856250D03*
D20*
X296000Y830000D01*
X312500Y830000D01*
X125572Y834500D02*
X122003Y834500D01*
X114750Y841753D02*
X114750Y846000D01*
X114750Y841753D02*
X122003Y834500D01*
D22*
X698750Y695000D02*
X735000Y731250D01*
X735000Y695000D01*
X698750Y695000D01*
X697500Y693750D01*
X733750Y693750D02*
X735000Y695000D01*
X733750Y693750D02*
X702500Y693750D01*
X697500Y693750D01*
X702500Y693750D02*
X731250Y722500D01*
X732500Y723750D01*
X731250Y722500D02*
X731250Y698750D01*
X711250Y698750D01*
X726250Y713750D01*
X728750Y713750D01*
X728750Y703750D01*
X726250Y701250D01*
X725000Y702500D01*
X718750Y702500D01*
X723750Y707500D01*
X726250Y707500D01*
X726250Y703750D01*
X725000Y702500D01*
X726250Y701250D02*
X733750Y693750D01*
X737500Y693750D02*
X737500Y733750D01*
X737500Y693750D02*
X733750Y693750D01*
X735000Y731250D02*
X737500Y733750D01*
X686250Y735000D02*
X686250Y717500D01*
X711250Y742500D01*
X711250Y755000D01*
X706250Y760000D01*
X702500Y763750D01*
X706250Y760000D02*
X706250Y740000D01*
M02*
