M48
;GenerationSoftware,Autodesk,EAGLE,9.0.1*%
;CreationDate,2018-06-21T06:15:50Z*%
FMAT,2
ICI,OFF
METRIC,TZ,000.000
T5C0.500
T4C0.750
T3C1.000
T2C1.118
T1C2.750
%
G90
M71
T1
X71660Y65730
X71660Y88730
X13660Y65730
X13660Y88730
T2
X27875Y64375
X24875Y64375
X21875Y64375
X60875Y64375
X57875Y64375
X54875Y64375
X51875Y64375
X48875Y64375
X45875Y64375
X42875Y64375
X39875Y64375
X71350Y83500
X67850Y83500
X62625Y80750
X59125Y80750
X72875Y70250
X52125Y80750
X55625Y80750
X48625Y80750
X45125Y80750
X64350Y83500
X60850Y83500
X57350Y83500
X53850Y83500
X50350Y83500
X46850Y83500
X69625Y80750
X66125Y80750
X69375Y75750
X69375Y73500
X22125Y74500
X24750Y74500
X28000Y74500
X30750Y74500
X34000Y74500
X36750Y74500
X40000Y74500
X42750Y74500
X66750Y74500
X64000Y74500
X60750Y74500
X58000Y74500
X54750Y74500
X52000Y74500
X48750Y74500
X46000Y74500
X66875Y64375
X63875Y64375
X36875Y64375
X33875Y64375
X30875Y64375
T3
X64250Y87460
X51550Y87460
X28690Y87460
X41390Y87460
X41390Y90000
X43930Y87460
X43930Y90000
X46470Y87460
X46470Y90000
X18530Y87460
X49010Y90000
X51550Y90000
X54090Y87460
X54090Y90000
X56630Y87460
X56630Y90000
X59170Y87460
X59170Y90000
X61710Y87460
X61710Y90000
X49010Y87460
X64250Y90000
X66790Y87460
X66790Y90000
X18530Y90000
X21070Y87460
X21070Y90000
X23610Y87460
X23610Y90000
X26150Y87460
X26150Y90000
X28690Y90000
X31230Y87460
X31230Y90000
X33770Y87460
X33770Y90000
X36310Y87460
X36310Y90000
X38850Y87460
X38850Y90000
T4
X18743Y73575
T5
X11475Y81825
X39575Y83000
X73275Y79575
X29600Y85625
X14100Y82725
X66000Y70674
X71100Y79575
X11475Y80550
X63500Y70673
X13650Y80550
X69554Y83250
X60003Y70679
X11475Y84600
X11475Y79200
X57425Y70675
X13650Y78525
X28625Y80750
X73425Y78375
X54000Y69193
X11475Y77925
X13725Y77100
X25625Y80750
X57369Y81715
X11475Y76650
X24125Y80750
X57700Y79682
X21450Y70650
X27125Y80750
X22625Y80750
X17118Y80143
X24000Y70650
X16800Y79125
X27450Y70650
X16800Y78000
X19500Y77775
X16800Y76875
X30000Y69900
X50400Y81525
X19500Y76650
X19500Y75525
X18375Y74850
X11475Y83100
X32900Y83150
X14250Y84300
X36225Y83000
M30