G04 EAGLE Gerber X2 export*
%TF.Part,Single*%
%TF.FileFunction,Paste,Top*%
%TF.FilePolarity,Positive*%
%TF.GenerationSoftware,Autodesk,EAGLE,9.0.1*%
%TF.CreationDate,2018-06-21T06:15:50Z*%
G75*
%MOMM*%
%FSLAX34Y34*%
%LPD*%
%AMOC8*
5,1,8,0,0,1.08239X$1,22.5*%
G01*
%ADD10R,1.300000X1.500000*%
%ADD11R,0.650000X1.750000*%
%ADD12R,1.600200X1.168400*%
%ADD13R,0.990600X0.304800*%


D10*
X145750Y737500D03*
X126750Y737500D03*
D11*
X540100Y721750D03*
X540100Y665750D03*
X552800Y721750D03*
X527400Y721750D03*
X514700Y721750D03*
X552800Y665750D03*
X527400Y665750D03*
X514700Y665750D03*
X480100Y721750D03*
X480100Y665750D03*
X492800Y721750D03*
X467400Y721750D03*
X454700Y721750D03*
X492800Y665750D03*
X467400Y665750D03*
X454700Y665750D03*
X660100Y721750D03*
X660100Y665750D03*
X672800Y721750D03*
X647400Y721750D03*
X634700Y721750D03*
X672800Y665750D03*
X647400Y665750D03*
X634700Y665750D03*
X600100Y721750D03*
X600100Y665750D03*
X612800Y721750D03*
X587400Y721750D03*
X574700Y721750D03*
X612800Y665750D03*
X587400Y665750D03*
X574700Y665750D03*
X240100Y721750D03*
X240100Y665750D03*
X252800Y721750D03*
X227400Y721750D03*
X214700Y721750D03*
X252800Y665750D03*
X227400Y665750D03*
X214700Y665750D03*
X300100Y721750D03*
X300100Y665750D03*
X312800Y721750D03*
X287400Y721750D03*
X274700Y721750D03*
X312800Y665750D03*
X287400Y665750D03*
X274700Y665750D03*
X360100Y721750D03*
X360100Y665750D03*
X372800Y721750D03*
X347400Y721750D03*
X334700Y721750D03*
X372800Y665750D03*
X347400Y665750D03*
X334700Y665750D03*
X420100Y721750D03*
X420100Y665750D03*
X432800Y721750D03*
X407400Y721750D03*
X394700Y721750D03*
X432800Y665750D03*
X407400Y665750D03*
X394700Y665750D03*
D10*
X145750Y707500D03*
X126750Y707500D03*
D12*
X411250Y845240D03*
X411250Y830000D03*
X411250Y814760D03*
X379000Y845240D03*
X379000Y830000D03*
X379000Y814760D03*
X312500Y845240D03*
X312500Y830000D03*
X312500Y814760D03*
X345000Y845240D03*
X345000Y830000D03*
X345000Y814760D03*
D13*
X125572Y841000D03*
X125572Y834500D03*
X125572Y828000D03*
X125572Y821500D03*
X125572Y815000D03*
X125572Y808500D03*
X125572Y802000D03*
X125572Y795500D03*
X125572Y789000D03*
X125572Y782500D03*
X125572Y776000D03*
X125572Y769500D03*
X125572Y763000D03*
X125572Y756500D03*
X183928Y756500D03*
X183928Y763000D03*
X183928Y769500D03*
X183928Y776000D03*
X183928Y782500D03*
X183928Y789000D03*
X183928Y795500D03*
X183928Y802000D03*
X183928Y808500D03*
X183928Y815000D03*
X183928Y821500D03*
X183928Y828000D03*
X183928Y834500D03*
X183928Y841000D03*
M02*
