G04 EAGLE Gerber X2 export*
%TF.Part,Single*%
%TF.FileFunction,Soldermask,Top,1*%
%TF.FilePolarity,Negative*%
%TF.GenerationSoftware,Autodesk,EAGLE,9.0.1*%
%TF.CreationDate,2018-06-21T06:15:50Z*%
G75*
%MOMM*%
%FSLAX34Y34*%
%LPD*%
%AMOC8*
5,1,8,0,0,1.08239X$1,22.5*%
G01*
%ADD10C,0.508000*%
%ADD11R,1.503200X1.703200*%
%ADD12P,2.556822X8X22.500000*%
%ADD13P,2.556822X8X202.500000*%
%ADD14R,0.853200X1.953200*%
%ADD15R,1.803400X1.371600*%
%ADD16R,1.193800X0.508000*%
%ADD17R,1.981200X1.981200*%
%ADD18C,1.981200*%
%ADD19C,2.953200*%
%ADD20C,1.359600*%
%ADD21C,1.109600*%


D10*
X736250Y730000D02*
X701250Y695000D01*
X736250Y695000D01*
X736250Y728750D01*
X732500Y725000D01*
X732500Y698750D01*
X708750Y698750D01*
X727500Y717500D01*
X731250Y717500D01*
X716250Y702500D01*
X713750Y702500D01*
D11*
X145750Y737500D03*
X126750Y737500D03*
D12*
X668750Y643750D03*
X638750Y643750D03*
D13*
X368750Y643750D03*
X338750Y643750D03*
D12*
X308750Y643750D03*
X278750Y643750D03*
X248750Y643750D03*
X218750Y643750D03*
X608750Y643750D03*
X578750Y643750D03*
X548750Y643750D03*
X518750Y643750D03*
X488750Y643750D03*
X458750Y643750D03*
X428750Y643750D03*
X398750Y643750D03*
X713500Y835000D03*
X678500Y835000D03*
D13*
X626250Y807500D03*
X591250Y807500D03*
D12*
X556250Y807500D03*
X521250Y807500D03*
X486250Y807500D03*
X451250Y807500D03*
X643500Y835000D03*
X608500Y835000D03*
X573500Y835000D03*
X538500Y835000D03*
X503500Y835000D03*
X468500Y835000D03*
X696250Y807500D03*
X661250Y807500D03*
D14*
X540100Y721750D03*
X540100Y665750D03*
X552800Y721750D03*
X527400Y721750D03*
X514700Y721750D03*
X552800Y665750D03*
X527400Y665750D03*
X514700Y665750D03*
X480100Y721750D03*
X480100Y665750D03*
X492800Y721750D03*
X467400Y721750D03*
X454700Y721750D03*
X492800Y665750D03*
X467400Y665750D03*
X454700Y665750D03*
X660100Y721750D03*
X660100Y665750D03*
X672800Y721750D03*
X647400Y721750D03*
X634700Y721750D03*
X672800Y665750D03*
X647400Y665750D03*
X634700Y665750D03*
X600100Y721750D03*
X600100Y665750D03*
X612800Y721750D03*
X587400Y721750D03*
X574700Y721750D03*
X612800Y665750D03*
X587400Y665750D03*
X574700Y665750D03*
X240100Y721750D03*
X240100Y665750D03*
X252800Y721750D03*
X227400Y721750D03*
X214700Y721750D03*
X252800Y665750D03*
X227400Y665750D03*
X214700Y665750D03*
X300100Y721750D03*
X300100Y665750D03*
X312800Y721750D03*
X287400Y721750D03*
X274700Y721750D03*
X312800Y665750D03*
X287400Y665750D03*
X274700Y665750D03*
X360100Y721750D03*
X360100Y665750D03*
X372800Y721750D03*
X347400Y721750D03*
X334700Y721750D03*
X372800Y665750D03*
X347400Y665750D03*
X334700Y665750D03*
X420100Y721750D03*
X420100Y665750D03*
X432800Y721750D03*
X407400Y721750D03*
X394700Y721750D03*
X432800Y665750D03*
X407400Y665750D03*
X394700Y665750D03*
D11*
X145750Y707500D03*
X126750Y707500D03*
D15*
X411250Y845240D03*
X411250Y830000D03*
X411250Y814760D03*
X379000Y845240D03*
X379000Y830000D03*
X379000Y814760D03*
X312500Y845240D03*
X312500Y830000D03*
X312500Y814760D03*
X345000Y845240D03*
X345000Y830000D03*
X345000Y814760D03*
D16*
X125572Y841000D03*
X125572Y834500D03*
X125572Y828000D03*
X125572Y821500D03*
X125572Y815000D03*
X125572Y808500D03*
X125572Y802000D03*
X125572Y795500D03*
X125572Y789000D03*
X125572Y782500D03*
X125572Y776000D03*
X125572Y769500D03*
X125572Y763000D03*
X125572Y756500D03*
X183928Y756500D03*
X183928Y763000D03*
X183928Y769500D03*
X183928Y776000D03*
X183928Y782500D03*
X183928Y789000D03*
X183928Y795500D03*
X183928Y802000D03*
X183928Y808500D03*
X183928Y815000D03*
X183928Y821500D03*
X183928Y828000D03*
X183928Y834500D03*
X183928Y841000D03*
D17*
X185300Y874600D03*
D18*
X185300Y900000D03*
X210700Y874600D03*
X210700Y900000D03*
X236100Y874600D03*
X236100Y900000D03*
X261500Y874600D03*
X261500Y900000D03*
X286900Y874600D03*
X286900Y900000D03*
X312300Y874600D03*
X312300Y900000D03*
X337700Y874600D03*
X337700Y900000D03*
X363100Y874600D03*
X363100Y900000D03*
X388500Y874600D03*
X388500Y900000D03*
X413900Y874600D03*
X413900Y900000D03*
X439300Y874600D03*
X439300Y900000D03*
X464700Y874600D03*
X464700Y900000D03*
X490100Y874600D03*
X490100Y900000D03*
X515500Y874600D03*
X515500Y900000D03*
X540900Y874600D03*
X540900Y900000D03*
X566300Y874600D03*
X566300Y900000D03*
X591700Y874600D03*
X591700Y900000D03*
X617100Y874600D03*
X617100Y900000D03*
X642500Y874600D03*
X642500Y900000D03*
X667900Y874600D03*
X667900Y900000D03*
D19*
X136600Y657300D03*
X136600Y887300D03*
X716600Y657300D03*
X716600Y887300D03*
D12*
X693750Y735000D03*
X693750Y757500D03*
X221250Y745000D03*
X247500Y745000D03*
X280000Y745000D03*
X307500Y745000D03*
X340000Y745000D03*
X367500Y745000D03*
X400000Y745000D03*
X427500Y745000D03*
X667500Y745000D03*
X640000Y745000D03*
X607500Y745000D03*
X580000Y745000D03*
X547500Y745000D03*
X520000Y745000D03*
X487500Y745000D03*
X460000Y745000D03*
X728750Y702500D03*
D20*
X187428Y735750D03*
D21*
X141000Y827250D03*
X660000Y706741D03*
X711000Y795750D03*
X114750Y805500D03*
X635000Y706726D03*
X136500Y805500D03*
X695542Y832500D03*
X600033Y706791D03*
X114750Y792000D03*
X732750Y795750D03*
X574250Y706750D03*
X136500Y785250D03*
X286250Y807500D03*
X734250Y783750D03*
X540000Y691934D03*
X114750Y779250D03*
X271250Y807500D03*
X137250Y771000D03*
X256250Y807500D03*
X573693Y817149D03*
X114750Y766500D03*
X241250Y807500D03*
X577000Y796820D03*
X214500Y706500D03*
X226250Y807500D03*
X171179Y801428D03*
X240000Y706500D03*
X168000Y791250D03*
X274500Y706500D03*
X168000Y780000D03*
X168000Y768750D03*
X300000Y699000D03*
X504000Y815250D03*
X195000Y777750D03*
X195000Y766500D03*
X195000Y755250D03*
X183750Y748500D03*
X114750Y831000D03*
X329000Y831500D03*
X142500Y843000D03*
X362250Y830000D03*
X114750Y818250D03*
X395750Y830000D03*
X114750Y846000D03*
X296000Y856250D03*
M02*
