G04 EAGLE Gerber X2 export*
%TF.Part,Single*%
%TF.FileFunction,Paste,Bot*%
%TF.FilePolarity,Positive*%
%TF.GenerationSoftware,Autodesk,EAGLE,9.0.1*%
%TF.CreationDate,2018-06-21T06:15:50Z*%
G75*
%MOMM*%
%FSLAX34Y34*%
%LPD*%
%AMOC8*
5,1,8,0,0,1.08239X$1,22.5*%
G01*
%ADD10C,1.930400*%


D10*
X221250Y744092D02*
X221250Y762888D01*
X221250Y661898D02*
X221250Y643102D01*
X666250Y744092D02*
X666250Y762888D01*
X666250Y661898D02*
X666250Y643102D01*
X641250Y744092D02*
X641250Y762888D01*
X641250Y661898D02*
X641250Y643102D01*
X606250Y744092D02*
X606250Y762888D01*
X606250Y661898D02*
X606250Y643102D01*
X581250Y744092D02*
X581250Y762888D01*
X581250Y661898D02*
X581250Y643102D01*
X546250Y744092D02*
X546250Y762888D01*
X546250Y661898D02*
X546250Y643102D01*
X521250Y744092D02*
X521250Y762888D01*
X521250Y661898D02*
X521250Y643102D01*
X486250Y744092D02*
X486250Y762888D01*
X486250Y661898D02*
X486250Y643102D01*
X461250Y744092D02*
X461250Y762888D01*
X461250Y661898D02*
X461250Y643102D01*
X426250Y744092D02*
X426250Y762888D01*
X426250Y661898D02*
X426250Y643102D01*
X401250Y744092D02*
X401250Y762888D01*
X401250Y661898D02*
X401250Y643102D01*
X366250Y744092D02*
X366250Y762888D01*
X366250Y661898D02*
X366250Y643102D01*
X341250Y744092D02*
X341250Y762888D01*
X341250Y661898D02*
X341250Y643102D01*
X306250Y744092D02*
X306250Y762888D01*
X306250Y661898D02*
X306250Y643102D01*
X281250Y744092D02*
X281250Y762888D01*
X281250Y661898D02*
X281250Y643102D01*
X246250Y744092D02*
X246250Y762888D01*
X246250Y661898D02*
X246250Y643102D01*
M02*
